<svg width="58" height="34" viewBox="0 0 58 34" fill="none" xmlns="http://www.w3.org/2000/svg">
<rect y="16.5459" width="23.3995" height="24.6838" rx="5" transform="rotate(-45 0 16.5459)" fill="#65DAFF"/>
<path d="M17.3778 15.8892C17.3494 15.5767 17.223 15.3338 16.9986 15.1605C16.777 14.9844 16.4602 14.8963 16.0483 14.8963C15.7756 14.8963 15.5483 14.9318 15.3665 15.0028C15.1847 15.0739 15.0483 15.1719 14.9574 15.2969C14.8665 15.419 14.8196 15.5597 14.8168 15.7188C14.8111 15.8494 14.8366 15.9645 14.8935 16.0639C14.9531 16.1634 15.0384 16.2514 15.1491 16.3281C15.2628 16.402 15.3991 16.4673 15.5582 16.5241C15.7173 16.581 15.8963 16.6307 16.0952 16.6733L16.8452 16.8438C17.277 16.9375 17.6577 17.0625 17.9872 17.2188C18.3196 17.375 18.598 17.5611 18.8224 17.777C19.0497 17.9929 19.2216 18.2415 19.3381 18.5227C19.4545 18.804 19.5142 19.1193 19.517 19.4688C19.5142 20.0199 19.375 20.4929 19.0994 20.8878C18.8239 21.2827 18.4276 21.5852 17.9105 21.7955C17.3963 22.0057 16.7756 22.1108 16.0483 22.1108C15.3182 22.1108 14.6818 22.0014 14.1392 21.7827C13.5966 21.5639 13.1747 21.2315 12.8736 20.7855C12.5724 20.3395 12.4176 19.7756 12.4091 19.0938H14.429C14.446 19.375 14.5213 19.6094 14.6548 19.7969C14.7884 19.9844 14.9716 20.1264 15.2045 20.223C15.4403 20.3196 15.7131 20.3679 16.0227 20.3679C16.3068 20.3679 16.5483 20.3295 16.7472 20.2528C16.9489 20.1761 17.1037 20.0696 17.2116 19.9332C17.3196 19.7969 17.375 19.6406 17.3778 19.4645C17.375 19.2997 17.3239 19.1591 17.2244 19.0426C17.125 18.9233 16.9716 18.821 16.7642 18.7358C16.5597 18.6477 16.2983 18.5668 15.9801 18.4929L15.0682 18.2798C14.3125 18.1065 13.7173 17.8267 13.2827 17.4403C12.848 17.0511 12.6321 16.5256 12.6349 15.8636C12.6321 15.3239 12.777 14.8509 13.0696 14.4446C13.3622 14.0384 13.767 13.7216 14.2841 13.4943C14.8011 13.267 15.3906 13.1534 16.0526 13.1534C16.7287 13.1534 17.3153 13.2685 17.8125 13.4986C18.3125 13.7259 18.7003 14.0455 18.9759 14.4574C19.2514 14.8693 19.392 15.3466 19.3977 15.8892H17.3778ZM22.7016 20.2827L22.7102 17.7983H22.9999L24.8409 15.4545H27.2016L24.4659 18.8125H23.9161L22.7016 20.2827ZM20.8224 22V13.2727H22.9062V22H20.8224ZM24.8877 22L23.1747 19.2812L24.5468 17.8026L27.2954 22H24.8877ZM28.1874 22V15.4545H30.2712V22H28.1874ZM29.2314 14.6918C28.9388 14.6918 28.6874 14.5952 28.4772 14.402C28.2669 14.206 28.1618 13.9702 28.1618 13.6946C28.1618 13.4219 28.2669 13.1889 28.4772 12.9957C28.6874 12.7997 28.9388 12.7017 29.2314 12.7017C29.5269 12.7017 29.7783 12.7997 29.9857 12.9957C30.1959 13.1889 30.301 13.4219 30.301 13.6946C30.301 13.9702 30.1959 14.206 29.9857 14.402C29.7783 14.5952 29.5269 14.6918 29.2314 14.6918ZM33.9213 13.2727V22H31.8375V13.2727H33.9213ZM37.5715 13.2727V22H35.4877V13.2727H37.5715ZM39.1379 22V15.4545H41.2217V22H39.1379ZM40.1819 14.6918C39.8893 14.6918 39.6379 14.5952 39.4276 14.402C39.2174 14.206 39.1123 13.9702 39.1123 13.6946C39.1123 13.4219 39.2174 13.1889 39.4276 12.9957C39.6379 12.7997 39.8893 12.7017 40.1819 12.7017C40.4773 12.7017 40.7288 12.7997 40.9362 12.9957C41.1464 13.1889 41.2515 13.4219 41.2515 13.6946C41.2515 13.9702 41.1464 14.206 40.9362 14.402C40.7288 14.5952 40.4773 14.6918 40.1819 14.6918ZM44.8718 18.267V22H42.788V15.4545H44.7695V16.6562H44.842C44.9869 16.2557 45.234 15.9418 45.5835 15.7145C45.9329 15.4844 46.3491 15.3693 46.832 15.3693C47.2923 15.3693 47.6914 15.473 48.0295 15.6804C48.3704 15.8849 48.6346 16.1719 48.8221 16.5412C49.0124 16.9077 49.1062 17.3366 49.1034 17.8281V22H47.0195V18.2372C47.0224 17.8736 46.9301 17.5895 46.7426 17.3849C46.5579 17.1804 46.3008 17.0781 45.9713 17.0781C45.7525 17.0781 45.5593 17.1264 45.3917 17.223C45.2269 17.3168 45.0991 17.4517 45.0082 17.6278C44.9201 17.804 44.8747 18.017 44.8718 18.267ZM53.6931 22.1236C53.0085 22.1236 52.4176 21.9886 51.9204 21.7188C51.4261 21.446 51.0454 21.0582 50.7784 20.5554C50.5142 20.0497 50.3821 19.4489 50.3821 18.7528C50.3821 18.0767 50.5156 17.4858 50.7826 16.9801C51.0497 16.4716 51.4261 16.0767 51.9119 15.7955C52.3977 15.5114 52.9701 15.3693 53.6292 15.3693C54.0951 15.3693 54.5213 15.4418 54.9076 15.5866C55.294 15.7315 55.6278 15.946 55.909 16.2301C56.1903 16.5142 56.409 16.8651 56.5653 17.2827C56.7215 17.6974 56.7997 18.1733 56.7997 18.7102V19.2301H51.1108V18.0199H54.8608C54.8579 17.7983 54.8054 17.6009 54.7031 17.4276C54.6008 17.2543 54.4602 17.1193 54.2812 17.0227C54.1051 16.9233 53.9019 16.8736 53.6718 16.8736C53.4389 16.8736 53.2301 16.9261 53.0454 17.0312C52.8608 17.1335 52.7144 17.2741 52.6065 17.4531C52.4985 17.6293 52.4417 17.8295 52.436 18.054V19.2855C52.436 19.5526 52.4886 19.7869 52.5937 19.9886C52.6988 20.1875 52.848 20.3423 53.0412 20.4531C53.2343 20.5639 53.4644 20.6193 53.7315 20.6193C53.9162 20.6193 54.0838 20.5937 54.2343 20.5426C54.3849 20.4915 54.5142 20.4162 54.6221 20.3168C54.7301 20.2173 54.811 20.0952 54.865 19.9503L56.7784 20.0057C56.6988 20.4347 56.5241 20.8082 56.2542 21.1264C55.9872 21.4418 55.6363 21.6875 55.2017 21.8636C54.767 22.0369 54.2642 22.1236 53.6931 22.1236Z" fill="#0C1D59"/>
</svg>
